<?xml version="1.0" standalone="no"?>
<!DOCTYPE svg PUBLIC "-//W3C//DTD SVG 20010904//EN"
 "http://www.w3.org/TR/2001/REC-SVG-20010904/DTD/svg10.dtd">
<svg version="1.0" xmlns="http://www.w3.org/2000/svg"
 width="512.000000pt" height="512.000000pt" viewBox="0 0 512.000000 512.000000"
 preserveAspectRatio="xMidYMid meet">

<g transform="translate(0.000000,512.000000) scale(0.100000,-0.100000)"
fill="#000000" stroke="none">
<path d="M466 4949 c-62 -15 -153 -68 -197 -116 -22 -24 -55 -74 -72 -111
l-32 -67 0 -1536 0 -1535 37 -76 c45 -91 103 -147 196 -191 l67 -32 807 -3
808 -3 0 -319 0 -320 -256 0 c-172 0 -270 -4 -298 -12 -86 -26 -166 -136 -166
-228 0 -92 80 -202 166 -228 31 -9 284 -12 1036 -12 1128 0 1055 -5 1131 80
90 100 90 220 0 320 -68 75 -90 80 -395 80 l-258 0 0 320 0 319 808 3 808 3
76 37 c91 45 147 103 191 196 l32 67 0 1535 0 1535 -32 67 c-44 93 -100 151
-191 196 l-76 37 -2075 2 c-1231 0 -2092 -3 -2115 -8z m4168 -161 c55 -16 138
-99 154 -154 9 -32 12 -340 12 -1298 l0 -1256 -2240 0 -2240 0 0 1256 c0 958
3 1266 12 1298 15 51 99 137 148 153 53 17 4097 17 4154 1z m166 -3004 c0 -78
-5 -154 -12 -178 -16 -55 -99 -138 -154 -154 -60 -18 -4088 -18 -4148 0 -55
16 -138 99 -154 154 -7 24 -12 100 -12 178 l0 136 2240 0 2240 0 0 -136z
m-1920 -824 l0 -320 -320 0 -320 0 0 320 0 320 320 0 320 0 0 -320z m695 -505
c16 -15 25 -36 25 -55 0 -19 -9 -40 -25 -55 l-24 -25 -991 0 -991 0 -24 25
c-16 15 -25 36 -25 55 0 19 9 40 25 55 l24 25 991 0 991 0 24 -25z"/>
<path d="M2425 4634 c-168 -26 -282 -62 -418 -132 -317 -162 -546 -465 -623
-822 -23 -106 -26 -352 -5 -455 48 -245 161 -457 335 -631 170 -170 364 -275
608 -331 103 -23 375 -23 476 0 493 113 847 474 943 962 8 40 14 132 14 215 0
158 -12 235 -56 373 -129 399 -465 704 -879 798 -83 19 -327 33 -395 23z m300
-169 c329 -53 613 -261 760 -555 42 -86 72 -168 97 -270 17 -71 17 -316 0
-395 -58 -271 -218 -514 -435 -663 -101 -70 -257 -135 -392 -164 -79 -17 -324
-17 -395 0 -237 57 -429 168 -574 330 -210 235 -301 549 -251 857 36 222 135
414 296 573 90 88 159 137 264 190 201 100 413 133 630 97z"/>
<path d="M2483 3460 l-161 -640 42 -11 c22 -5 56 -14 75 -19 19 -5 36 -8 37
-7 2 1 74 289 162 639 137 549 157 638 143 642 -9 3 -36 10 -61 16 -25 6 -52
13 -61 16 -14 4 -41 -94 -176 -636z"/>
<path d="M1927 3722 c-226 -227 -247 -251 -247 -282 0 -31 21 -55 250 -285
l250 -250 57 58 58 57 -210 210 -210 210 208 208 c114 114 207 212 207 217 0
14 -92 105 -106 105 -5 0 -121 -112 -257 -248z"/>
<path d="M2877 3922 c-26 -26 -47 -52 -47 -57 0 -6 93 -103 207 -217 l208
-208 -210 -210 -210 -210 58 -57 57 -58 250 250 c229 230 250 254 250 285 0
31 -21 55 -247 282 -136 136 -252 248 -258 248 -6 0 -32 -22 -58 -48z"/>
<path d="M480 4400 l0 -80 80 0 80 0 0 80 0 80 -80 0 -80 0 0 -80z"/>
<path d="M800 4400 l0 -80 160 0 160 0 0 80 0 80 -160 0 -160 0 0 -80z"/>
<path d="M4000 4400 l0 -80 160 0 160 0 0 80 0 80 -160 0 -160 0 0 -80z"/>
<path d="M4480 4400 l0 -80 80 0 80 0 0 80 0 80 -80 0 -80 0 0 -80z"/>
<path d="M480 4080 l0 -80 160 0 160 0 0 80 0 80 -160 0 -160 0 0 -80z"/>
<path d="M960 4080 l0 -80 80 0 80 0 0 80 0 80 -80 0 -80 0 0 -80z"/>
<path d="M4000 4080 l0 -80 80 0 80 0 0 80 0 80 -80 0 -80 0 0 -80z"/>
<path d="M4320 4080 l0 -80 160 0 160 0 0 80 0 80 -160 0 -160 0 0 -80z"/>
<path d="M480 3760 l0 -80 80 0 80 0 0 80 0 80 -80 0 -80 0 0 -80z"/>
<path d="M800 3760 l0 -80 160 0 160 0 0 80 0 80 -160 0 -160 0 0 -80z"/>
<path d="M4000 3760 l0 -80 160 0 160 0 0 80 0 80 -160 0 -160 0 0 -80z"/>
<path d="M4480 3760 l0 -80 80 0 80 0 0 80 0 80 -80 0 -80 0 0 -80z"/>
<path d="M480 3440 l0 -80 160 0 160 0 0 80 0 80 -160 0 -160 0 0 -80z"/>
<path d="M960 3440 l0 -80 80 0 80 0 0 80 0 80 -80 0 -80 0 0 -80z"/>
<path d="M4000 3440 l0 -80 80 0 80 0 0 80 0 80 -80 0 -80 0 0 -80z"/>
<path d="M4320 3440 l0 -80 160 0 160 0 0 80 0 80 -160 0 -160 0 0 -80z"/>
<path d="M480 3120 l0 -80 80 0 80 0 0 80 0 80 -80 0 -80 0 0 -80z"/>
<path d="M800 3120 l0 -80 160 0 160 0 0 80 0 80 -160 0 -160 0 0 -80z"/>
<path d="M4000 3120 l0 -80 160 0 160 0 0 80 0 80 -160 0 -160 0 0 -80z"/>
<path d="M4480 3120 l0 -80 80 0 80 0 0 80 0 80 -80 0 -80 0 0 -80z"/>
<path d="M480 2800 l0 -80 160 0 160 0 0 80 0 80 -160 0 -160 0 0 -80z"/>
<path d="M960 2800 l0 -80 80 0 80 0 0 80 0 80 -80 0 -80 0 0 -80z"/>
<path d="M4000 2800 l0 -80 80 0 80 0 0 80 0 80 -80 0 -80 0 0 -80z"/>
<path d="M4320 2800 l0 -80 160 0 160 0 0 80 0 80 -160 0 -160 0 0 -80z"/>
<path d="M480 2480 l0 -80 80 0 80 0 0 80 0 80 -80 0 -80 0 0 -80z"/>
<path d="M800 2480 l0 -80 160 0 160 0 0 80 0 80 -160 0 -160 0 0 -80z"/>
<path d="M4000 2480 l0 -80 160 0 160 0 0 80 0 80 -160 0 -160 0 0 -80z"/>
<path d="M4480 2480 l0 -80 80 0 80 0 0 80 0 80 -80 0 -80 0 0 -80z"/>
</g>
</svg>
